<mxfile host="app.diagrams.net" modified="2024-03-01T16:29:57.461Z" agent="Mozilla/5.0 (Windows NT 10.0; Win64; x64) AppleWebKit/537.36 (KHTML, like Gecko) Chrome/122.0.0.0 Safari/537.36" etag="Ou6PagpsB6SXFsNzykzd" version="24.0.0" type="device">
  <diagram name="All slides" id="Rsa70eMvFUddZz7jIkwE">
    <mxGraphModel dx="797" dy="351" grid="0" gridSize="10" guides="1" tooltips="1" connect="1" arrows="1" fold="1" page="0" pageScale="1" pageWidth="827" pageHeight="1169" math="0" shadow="0">
      <root>
        <mxCell id="0" />
        <mxCell id="1" parent="0" />
        <mxCell id="jqlfREC7a0ysGZMhI8w4-4" style="edgeStyle=none;curved=1;rounded=0;orthogonalLoop=1;jettySize=auto;html=1;exitX=0.5;exitY=1;exitDx=0;exitDy=0;entryX=0.5;entryY=0;entryDx=0;entryDy=0;fontSize=12;startSize=8;endSize=8;" parent="1" source="jqlfREC7a0ysGZMhI8w4-2" target="jqlfREC7a0ysGZMhI8w4-3" edge="1">
          <mxGeometry relative="1" as="geometry" />
        </mxCell>
        <mxCell id="jqlfREC7a0ysGZMhI8w4-6" style="edgeStyle=none;curved=1;rounded=0;orthogonalLoop=1;jettySize=auto;html=1;exitX=0.5;exitY=1;exitDx=0;exitDy=0;entryX=0.5;entryY=0;entryDx=0;entryDy=0;fontSize=12;startSize=8;endSize=8;" parent="1" source="jqlfREC7a0ysGZMhI8w4-2" target="jqlfREC7a0ysGZMhI8w4-5" edge="1">
          <mxGeometry relative="1" as="geometry" />
        </mxCell>
        <mxCell id="jqlfREC7a0ysGZMhI8w4-2" value="Elizabeth II" style="rounded=0;whiteSpace=wrap;html=1;" parent="1" vertex="1">
          <mxGeometry x="164" y="32" width="120" height="59" as="geometry" />
        </mxCell>
        <mxCell id="jqlfREC7a0ysGZMhI8w4-3" value="Elizabeth I&lt;br&gt;&lt;br&gt;- Another example of long kingdom&lt;br&gt;&lt;br&gt;- Colonial expansion and cultural expansion" style="rounded=0;whiteSpace=wrap;html=1;" parent="1" vertex="1">
          <mxGeometry x="51" y="177" width="133" height="165" as="geometry" />
        </mxCell>
        <mxCell id="jqlfREC7a0ysGZMhI8w4-5" value="Leader of the family tree&lt;br&gt;Born on April 1926&lt;br&gt;Parents: King George VI / Queern Elizabeth I" style="rounded=0;whiteSpace=wrap;html=1;" parent="1" vertex="1">
          <mxGeometry x="262" y="197" width="166" height="117" as="geometry" />
        </mxCell>
        <mxCell id="jqlfREC7a0ysGZMhI8w4-10" style="edgeStyle=none;curved=1;rounded=0;orthogonalLoop=1;jettySize=auto;html=1;exitX=1;exitY=0.5;exitDx=0;exitDy=0;entryX=0;entryY=0.5;entryDx=0;entryDy=0;fontSize=12;startSize=8;endSize=8;" parent="1" source="jqlfREC7a0ysGZMhI8w4-7" target="jqlfREC7a0ysGZMhI8w4-9" edge="1">
          <mxGeometry relative="1" as="geometry" />
        </mxCell>
        <mxCell id="jqlfREC7a0ysGZMhI8w4-7" value="Childhood&lt;br&gt;&lt;br&gt;- Superivision of mother and governess&lt;br&gt;- Studies and self-learning&lt;br&gt;- Passion of horses and dogs&lt;br&gt;- Spent childhood in Piccadilly" style="rounded=0;whiteSpace=wrap;html=1;" parent="1" vertex="1">
          <mxGeometry x="14" y="563" width="146" height="143" as="geometry" />
        </mxCell>
        <mxCell id="jqlfREC7a0ysGZMhI8w4-12" style="edgeStyle=none;curved=1;rounded=0;orthogonalLoop=1;jettySize=auto;html=1;exitX=0.5;exitY=1;exitDx=0;exitDy=0;fontSize=12;startSize=8;endSize=8;" parent="1" source="jqlfREC7a0ysGZMhI8w4-9" target="jqlfREC7a0ysGZMhI8w4-11" edge="1">
          <mxGeometry relative="1" as="geometry" />
        </mxCell>
        <mxCell id="jqlfREC7a0ysGZMhI8w4-9" value="Edward VIII&lt;br&gt;&lt;br&gt;- Queen was not expected to become a queen&amp;nbsp;&lt;br&gt;- He abdicated on 1936&lt;br&gt;- He met an American woman divorced which was not accepted by the royal family" style="rounded=0;whiteSpace=wrap;html=1;" parent="1" vertex="1">
          <mxGeometry x="271" y="563" width="146" height="143" as="geometry" />
        </mxCell>
        <mxCell id="jqlfREC7a0ysGZMhI8w4-14" style="edgeStyle=none;curved=1;rounded=0;orthogonalLoop=1;jettySize=auto;html=1;exitX=0;exitY=0.5;exitDx=0;exitDy=0;fontSize=12;startSize=8;endSize=8;" parent="1" source="jqlfREC7a0ysGZMhI8w4-11" target="jqlfREC7a0ysGZMhI8w4-13" edge="1">
          <mxGeometry relative="1" as="geometry" />
        </mxCell>
        <mxCell id="jqlfREC7a0ysGZMhI8w4-11" value="Second World War&lt;br&gt;&lt;br&gt;- George VI became the King&lt;br&gt;- In 1939 Britain entered the Second World War&lt;br&gt;- Britain fought together with USA, Russia; Soviet Union,&amp;nbsp;&lt;br&gt;- Britain fought against Germany and Italy&lt;br&gt;- In 1940 Winston Churchill became Prime Minister and was a strong leader&lt;br&gt;- Buckingham Palace was bombed in 1940 and also the queen family hourse&lt;div&gt;&lt;br/&gt;&lt;/div&gt;" style="rounded=0;whiteSpace=wrap;html=1;" parent="1" vertex="1">
          <mxGeometry x="246.5" y="780" width="195" height="253" as="geometry" />
        </mxCell>
        <mxCell id="jqlfREC7a0ysGZMhI8w4-16" style="edgeStyle=none;curved=1;rounded=0;orthogonalLoop=1;jettySize=auto;html=1;exitX=0.5;exitY=1;exitDx=0;exitDy=0;fontSize=12;startSize=8;endSize=8;" parent="1" source="jqlfREC7a0ysGZMhI8w4-13" target="jqlfREC7a0ysGZMhI8w4-15" edge="1">
          <mxGeometry relative="1" as="geometry" />
        </mxCell>
        <mxCell id="jqlfREC7a0ysGZMhI8w4-13" value="End of Second World War&lt;br&gt;&lt;br&gt;- First public speech to support the nation&lt;br&gt;- First woman to become full-time member of Armed Services for British Army&lt;br&gt;- Studies mechanics, map reading and vehicles&lt;br&gt;- End of War in 1945&lt;div&gt;&lt;br/&gt;&lt;/div&gt;" style="rounded=0;whiteSpace=wrap;html=1;" parent="1" vertex="1">
          <mxGeometry x="1" y="780" width="195" height="253" as="geometry" />
        </mxCell>
        <mxCell id="jqlfREC7a0ysGZMhI8w4-20" style="edgeStyle=none;curved=1;rounded=0;orthogonalLoop=1;jettySize=auto;html=1;exitX=1;exitY=0.5;exitDx=0;exitDy=0;fontSize=12;startSize=8;endSize=8;" parent="1" source="jqlfREC7a0ysGZMhI8w4-15" target="jqlfREC7a0ysGZMhI8w4-18" edge="1">
          <mxGeometry relative="1" as="geometry" />
        </mxCell>
        <mxCell id="jqlfREC7a0ysGZMhI8w4-15" value="Rebuilding of the country&lt;br&gt;&lt;br&gt;- First overseas tour in South Afruca&lt;br&gt;- Loyalty declaration to the nation&lt;br&gt;- After WWI, British Empire declined and many colonies become independent&lt;br&gt;- Notable case: India with Gandhi&lt;br&gt;&lt;div&gt;- Birth of Commonwealth in 1926 for cooperation and dialogue with ex-colonies and Britain&lt;br&gt;&lt;/div&gt;" style="rounded=0;whiteSpace=wrap;html=1;" parent="1" vertex="1">
          <mxGeometry x="4" y="1098" width="195" height="253" as="geometry" />
        </mxCell>
        <mxCell id="jqlfREC7a0ysGZMhI8w4-24" style="edgeStyle=none;curved=1;rounded=0;orthogonalLoop=1;jettySize=auto;html=1;exitX=0.5;exitY=1;exitDx=0;exitDy=0;entryX=0.5;entryY=0;entryDx=0;entryDy=0;fontSize=12;startSize=8;endSize=8;" parent="1" source="jqlfREC7a0ysGZMhI8w4-18" target="jqlfREC7a0ysGZMhI8w4-21" edge="1">
          <mxGeometry relative="1" as="geometry" />
        </mxCell>
        <mxCell id="jqlfREC7a0ysGZMhI8w4-18" value="Activity&lt;br&gt;&lt;br&gt;- Elizabeth married Prince Philip&lt;br&gt;- First children&lt;br&gt;- 1953: first televised incronation&lt;div&gt;- Various Commonwalth tours to strengthen diplomatic&lt;br&gt;- 1977 = first 25 years of kingdom much cekebrated&lt;br&gt;- Continuous contact with Prime Ministers&lt;/div&gt;" style="rounded=0;whiteSpace=wrap;html=1;" parent="1" vertex="1">
          <mxGeometry x="255" y="1098" width="195" height="253" as="geometry" />
        </mxCell>
        <mxCell id="jqlfREC7a0ysGZMhI8w4-23" style="edgeStyle=none;curved=1;rounded=0;orthogonalLoop=1;jettySize=auto;html=1;exitX=0;exitY=0.5;exitDx=0;exitDy=0;entryX=1;entryY=0.5;entryDx=0;entryDy=0;fontSize=12;startSize=8;endSize=8;" parent="1" source="jqlfREC7a0ysGZMhI8w4-21" target="jqlfREC7a0ysGZMhI8w4-22" edge="1">
          <mxGeometry relative="1" as="geometry" />
        </mxCell>
        <mxCell id="jqlfREC7a0ysGZMhI8w4-21" value="Margaret Thatcher (First Minister)&lt;br&gt;&lt;br&gt;-&amp;nbsp;Thatcherism: it aimed to reduce the role of the state in the economy and promote free-market principles&lt;br&gt;- determined and strong policies&lt;br&gt;- In 1973 entered EU&lt;br&gt;- Eurosceptic: thinking EU is too centralized&lt;div&gt;&lt;br&gt;&lt;/div&gt;" style="rounded=0;whiteSpace=wrap;html=1;" parent="1" vertex="1">
          <mxGeometry x="255" y="1393" width="195" height="253" as="geometry" />
        </mxCell>
        <mxCell id="jqlfREC7a0ysGZMhI8w4-26" style="edgeStyle=none;curved=1;rounded=0;orthogonalLoop=1;jettySize=auto;html=1;exitX=0.5;exitY=1;exitDx=0;exitDy=0;entryX=0.5;entryY=0;entryDx=0;entryDy=0;fontSize=12;startSize=8;endSize=8;" parent="1" source="jqlfREC7a0ysGZMhI8w4-22" target="jqlfREC7a0ysGZMhI8w4-25" edge="1">
          <mxGeometry relative="1" as="geometry" />
        </mxCell>
        <mxCell id="jqlfREC7a0ysGZMhI8w4-22" value="Princess Diana&lt;br&gt;&lt;br&gt;- In 1981, Prince Charles married Diana&lt;br&gt;- Different marital difficulties in 1996 led to divorce&lt;div&gt;- Great humanitarian and charitable works and numerous causes&lt;br&gt;- Symbol of humility and simplicity&lt;br&gt;- Died in a car accident in 1997&lt;/div&gt;" style="rounded=0;whiteSpace=wrap;html=1;" parent="1" vertex="1">
          <mxGeometry x="1" y="1393" width="195" height="253" as="geometry" />
        </mxCell>
        <mxCell id="jqlfREC7a0ysGZMhI8w4-28" style="edgeStyle=none;curved=1;rounded=0;orthogonalLoop=1;jettySize=auto;html=1;exitX=1;exitY=0.5;exitDx=0;exitDy=0;entryX=0;entryY=0.5;entryDx=0;entryDy=0;fontSize=12;startSize=8;endSize=8;" parent="1" source="jqlfREC7a0ysGZMhI8w4-25" target="jqlfREC7a0ysGZMhI8w4-27" edge="1">
          <mxGeometry relative="1" as="geometry" />
        </mxCell>
        <mxCell id="jqlfREC7a0ysGZMhI8w4-25" value="Brexit&lt;br&gt;&lt;br&gt;- Referedum to establish to remain or go out from EU&lt;br&gt;- Europeans need a passport to travel in the UK&lt;div&gt;&lt;br/&gt;&lt;/div&gt;" style="rounded=0;whiteSpace=wrap;html=1;" parent="1" vertex="1">
          <mxGeometry x="1" y="1688" width="195" height="253" as="geometry" />
        </mxCell>
        <mxCell id="jqlfREC7a0ysGZMhI8w4-27" value="Last years of kingdom&lt;br&gt;&lt;br&gt;- 70 plus years of Kingdom&lt;div&gt;- Died in 1922&lt;/div&gt;" style="rounded=0;whiteSpace=wrap;html=1;" parent="1" vertex="1">
          <mxGeometry x="258" y="1688" width="195" height="253" as="geometry" />
        </mxCell>
        <mxCell id="iLyd31JvmA2tY6w-PE82-3" style="edgeStyle=orthogonalEdgeStyle;rounded=0;orthogonalLoop=1;jettySize=auto;html=1;exitX=0;exitY=0.5;exitDx=0;exitDy=0;entryX=0.5;entryY=0;entryDx=0;entryDy=0;" edge="1" parent="1" source="iLyd31JvmA2tY6w-PE82-2" target="jqlfREC7a0ysGZMhI8w4-7">
          <mxGeometry relative="1" as="geometry" />
        </mxCell>
        <mxCell id="iLyd31JvmA2tY6w-PE82-2" value="Life of Elizabeth II" style="rounded=1;whiteSpace=wrap;html=1;" vertex="1" parent="1">
          <mxGeometry x="155" y="437" width="120" height="60" as="geometry" />
        </mxCell>
      </root>
    </mxGraphModel>
  </diagram>
</mxfile>
